/* XPM */
static char *a2e4f365ce2545dcb1c7e61943342eb1GdS2yqCLxrOiGcjt[] = {
/* columns rows colors chars-per-pixel */
"64 64 118 2 ",
"   c None",
".  c #040404",
"X  c #070708",
"o  c #070808",
"O  c #0B0B0C",
"+  c #0E0E10",
"@  c #0F1011",
"#  c #111214",
"$  c #151618",
"%  c #191A1D",
"&  c #1D1E21",
"*  c #1F2024",
"=  c #212226",
"-  c #242529",
";  c #27292D",
":  c #282A2E",
">  c #2B2D32",
",  c #2F3136",
"<  c #303237",
"1  c #32353A",
"2  c #36383E",
"3  c #373940",
"4  c #3B3D43",
"5  c #3E4047",
"6  c #3F4148",
"7  c #42454C",
"8  c #45484F",
"9  c #474A52",
"0  c #4A4D55",
"q  c #4C4F58",
"w  c #4D5056",
"e  c #4E515A",
"r  c #52555E",
"t  c #545760",
"y  c #565962",
"u  c #595D66",
"i  c #5B5F68",
"p  c #5E616B",
"a  c #61656E",
"s  c #636771",
"d  c #666972",
"f  c #696C76",
"g  c #6B6E79",
"h  c #6E717B",
"j  c #72757E",
"k  c #727681",
"l  c #757983",
"z  c #797C86",
"x  c #7A7E88",
"c  c #7D818C",
"v  c #81858E",
"b  c #828691",
"n  c #868993",
"m  c #898C95",
"M  c #8B8F99",
"N  c #8E929B",
"B  c #91959E",
"V  c #95989F",
"C  c #9396A0",
"Z  c #9296A0",
"A  c #9599A2",
"S  c #989BA5",
"D  c #9C9FA7",
"F  c #999CA5",
"G  c #9B9FA8",
"H  c #9EA2AB",
"J  c #9EA2AA",
"K  c #A0A2A8",
"L  c #A0A2A9",
"P  c #A0A4AC",
"I  c #A1A5AC",
"U  c #A1A4AD",
"Y  c #A2A5AC",
"T  c #A2A5AD",
"R  c #A3A6AE",
"E  c #A1A4AD",
"W  c #A5A8AF",
"Q  c #A5A8AD",
"!  c #A4A7B0",
"~  c #A5A8B0",
"^  c #A5A8B1",
"/  c #A5A9B1",
"(  c #A5A8B0",
")  c #A8ABB3",
"_  c #A9ACB2",
"`  c #A9ACB3",
"'  c #A8ACB4",
"]  c #A9ACB4",
"[  c #A9ACB5",
"{  c #ABAEB6",
"}  c #ACAEB5",
"|  c #AAADB5",
" . c #ADB0B6",
".. c #AEB1B8",
"X. c #B2B4BB",
"o. c #B2B5BC",
"O. c #B2B5BB",
"+. c #B6B8BE",
"@. c #B6B8BF",
"#. c #B7B9BF",
"$. c #B7B9C0",
"%. c #B7B9C0",
"&. c #B8BBC2",
"*. c #B9BCC3",
"=. c #BABDC3",
"-. c #BFC1C7",
";. c #BFC1C8",
":. c #BFC2C8",
">. c #C0C2C8",
",. c #C1C4C9",
"<. c #C5C7CD",
"1. c #C5C7CD",
"2. c #D0D2D6",
"3. c #D3D5D9",
"4. c #D5D6DA",
"5. c #D9DADE",
"6. c #E2E3E6",
"7. c #E3E4E6",
/* pixels */
"                                                                                                                                ",
"                                                                                                                                ",
"                                                                                                                                ",
"                                                                                                                                ",
"                                                                                                                                ",
"                                                      l m v B D D B b m l                                                       ",
"                                                      j m c B I I B m m j                                                       ",
"                                                u i 6 y 9 r z I I z u 0 y 6 i u                                                 ",
"                                            f a v N r i r 7 7 z z 7 7 r i r N m d f                                             ",
"                                        j B ^ h m :.j a s e 3 y y 3 e s a j :.I l ^ B j                                         ",
"                                  r d N { ,.6._ j B p a j y 7 0 0 7 y j a p B k I 7.,.) B h r                                   ",
"                            r 7 y b S $.3.2.+.c 3 > - p j r i f f i r j p - > : j +.2.3.=.H b y 7 r                             ",
"                          n _ a r C +.-.W h 7 - % % & > : ; < 4 4 < : : > & % % = 7 h W :.&.C r a { B                           ",
"                        K <.n h p a N h 6 = % * = % # O X . . . . . . X O # % = * % = 7 f n a p h n -.K                         ",
"                      N { o.c p x r * = $ % * & # O                         O # % * % $ = - r x p c  .{ N                       ",
"                    m v j j g p g d # O $ $ + O                                 O + $ $ O # d g p g j j v m                     ",
"                    9 y y 9 e a f > + # O                                             O # # > f a q 8 y y 0                     ",
"                  p a 0 p k a y , + O O                                                 O O + , y a k p 0 a d                   ",
"                  v { X.d 6 0 % # O X                                                     . O # % w 9 d X.{ b                   ",
"                a N { 4.c - # @ O X                                                         X O @ # * c 4.{ B h                 ",
"                z G >.>.r & # O O                                                             O O # % r >.>.G m                 ",
"              y x { 5.N > @ + X                                                                 X + # > N 5.{ b u               ",
"              r l ^ B e $ # O #                                                                 # O # $ e B { m t               ",
"              i N I t & O O O =                                                                 = O + O & t I ^ p               ",
"          l v V I M 0 > % O + ;                                                                 ; O O % > 0 M ^ A v l           ",
"          z S ..$.N a 9 : # # ;                                                                 ; + O : 9 a N X...A z           ",
"          4 y d l g y 6 % O % >                                                                 > % O & 6 y h z d e <           ",
"          1 p x ^ { v y = X % < #                                                             # < % O 1 s v { ^ x e -           ",
"          3 y 7 z v 8 4 = . # 2 #                                                             # 2 # . 2 r 8 v z 7 4 >           ",
"          3 i 4 u p 4 7 - . # > O                                                             O > # . 3 u 4 p u 4 7 >           ",
"          1 e 6 q r 5 e > . O - O                                                             O - + . , e 4 r e 6 9 <           ",
"          d x V W F j t 4 & # = @                                                             @ = # $ 3 r l I X.H v f           ",
"          y f m A v p 4 - % # =                                                                 = + # ; 4 p v V m f y           ",
"            > 8 y 7 > # O X + :                                                                 : + . O # > 7 y 8 >             ",
"            8 x H N y & X X O -                                                                 - O X X & y N { c 8             ",
"            9 v $.{ p * O X O -                                                                 - O X O * p { <.v 9             ",
"            9 x { ) u = O o + -                                                                 - + X O = u { =.c 9             ",
"            7 x F B e = O O + -                                                                 - + O O = e C I x 7             ",
"            7 k B x q = + O + =                                                                 = + O + = q x N k 7             ",
"            7 l A b r - @ O O &                                                                 & O O @ - r b S l 7             ",
"            4 k P N e = O O O %                                                                 % O O O = e N { l 4             ",
"            1 g I B e * O O + &                                                                 & + O O * e B X.h 1             ",
"            1 f ! B 0 & O $ , 2 #                                                             # 2 < % O & 0 B o.g 1             ",
"            , a H M 8 % X X = 8                                                                 7 = O X % 8 M { d ,             ",
"            > u C x 4 # X . & 7                                                                 7 & X X # 4 x H i >             ",
"            > r m h < + O X * 3                                                                 3 * O O + < h A y >             ",
"            r m { N 8 % + o % ,                                                                 , % O + % 8 N o.m r             ",
"            1 i m z 3 $ O + - 1 $                                                             $ 1 - # O $ 3 z B p 1             ",
"          f f u u y 0 q 5 - & =                                                                 = & = 5 q 0 y p i f f           ",
"          N P B M N n z a 7 & +                                                                 + % 3 a z n B N B P N           ",
"          z x b M j u t 0 4 % #                                                                 # % 1 q t u k m b x z           ",
"          k c C ^ c u 0 6 > $ +                                                                 + $ ; 6 0 u c F C c k           ",
"          g l x c g 0 4 , * @ +                                                                 + + % , 4 0 g x x l g           ",
"          r s d s y 4 , = # O O                                                                 O o + - , 4 t p s s r           ",
"          4 9 8 7 2 ; & $ $ # O                                                                 O # $ $ & ; 2 6 8 9 4           ",
"          7 9 7 5 3 , , > ;                                                                         ; > , , 3 5 7 9 7           ",
"                                                                                                                                ",
"                                                                                                                                ",
"                                                                                                                                ",
"                                                                                                                                ",
"                                                                                                                                ",
"                                                                                                                                ",
"                                                                                                                                ",
"                                                                                                                                "
};
