/* XPM */
static char *_e5284190e6b46a390580a0b69d97874[] = {
/* columns rows colors chars-per-pixel */
"64 64 21 1 ",
"  c None",
". c #1B1B1B",
"X c #C64524",
"o c #8E251D",
"O c #657392",
"+ c #92A1B9",
"@ c #C7CFDD",
"# c #131313",
"$ c gray24",
"% c white",
"& c #0098DC",
"* c #E69C69",
"= c #F6CA9F",
"- c #424C6E",
"; c #391F21",
": c #5D2C28",
"> c #571C27",
", c #2A2F4E",
"< c #ED7614",
"1 c #FFA214",
"2 c #FFC825",
/* pixels */
"                                                                ",
"                                                                ",
"                                                                ",
"                                                                ",
"                                                                ",
"                                                                ",
"                                                                ",
"                                                                ",
"                                                                ",
"                                                                ",
"                                                                ",
"                                                                ",
"                                                                ",
"                                                                ",
"                                                                ",
"                                                                ",
"                           ....                                 ",
"                         ..XXoo.                                ",
"                        .XXXXXoo....                            ",
"                       .XXXXXooO++@@.                           ",
"                       .XXXXooO+@@@O+.                          ",
"                      .XXXXooO+@@@O@O+.                         ",
"                      .XXXo.O+@@++@@@O+.                        ",
"                     .XXXo..OO+O@@#@#+O.                        ",
"                     .XXoo..O+O@#@#@#+O.                        ",
"                      .Xo. .O+O@$@$@$+.                         ",
"                      .oo.  .OOO%&**&.                          ",
"                     .oo.  ..XO++==**+.                         ",
"                     .o.  .XXooO+==*O+.                         ",
"                    .oo. .X@@+ooXXXo..                          ",
"                    .o. .X@@@+OooXXX-.                          ",
"                     . .X+@@++OoooX+-.                          ",
"                      .XXO+++OO+++@+-....                       ",
"                      .XX@OOOO++@@@+.O+++.                      ",
"                     .XXO@@+-OO++@@+O;;::+.                     ",
"                     .XX@OO+>-O++@@+-;;:::+.                    ",
"                    .XXX@@+>>-OO+++--O;:::+.                    ",
"                    .XXXo@+>>--OO++---,;::+.                    ",
"                   .XXXX<OO>>11ooooO-,OO::+.                    ",
"                   .XXXX<@++1@ooXXXo;--O::+.                    ",
"                   .XXXXo@@+1@@@XXXXo;--;:+.                    ",
"                   .XXXXooo2@%%@@@OOo;;;;+.                     ",
"                  .XXXXXXoo2oo%%%@@@Oo;;;O.                     ",
"                  .XXXXXXo.ooo+.%%%@@@+;O.                      ",
"                  .XXXXXX.@oO+. ..%%%@@O.                       ",
"                   .XXXXX.@@+.    ..%%%.                        ",
"                    ..XXX+@++.     .OO.                         ",
"                      ...O++.      .O--.                        ",
"                       .@+O.       .-OOO.                       ",
"                      .@@@+.       .OO+++.                      ",
"                       ....         .....                       ",
"                                                                ",
"                                                                ",
"                                                                ",
"                                                                ",
"                                                                ",
"                                                                ",
"                                                                ",
"                                                                ",
"                                                                ",
"                                                                ",
"                                                                ",
"                                                                ",
"                                                                "
};
