/* XPM */
static char *_4193ebdd2084c09c31f4d07dbb63c4cMU4Sc380f9169GHa[] = {
/* columns rows colors chars-per-pixel */
"64 64 142 2 ",
"   c #020202",
".  c #090705",
"X  c #0D0904",
"o  c #030509",
"O  c #07090E",
"+  c #0B0B0B",
"@  c #140D02",
"#  c #120E08",
"$  c #171105",
"%  c #1B1302",
"&  c #15110A",
"*  c #1C150A",
"=  c #1F180A",
"-  c #060A13",
";  c #0B0D12",
":  c #141414",
">  c #181714",
",  c #1B1814",
"<  c #1B1B1B",
"1  c #211601",
"2  c #251902",
"3  c #2C1D02",
"4  c #231A0A",
"5  c #281E09",
"6  c #231D11",
"7  c #201F1F",
"8  c #2F2107",
"9  c #2D220C",
"0  c #352404",
"q  c #3B2904",
"w  c #372708",
"e  c #3C2B09",
"r  c #272013",
"t  c #2C2311",
"y  c #21201F",
"u  c #312711",
"i  c #352A11",
"p  c #3A2D12",
"a  c #1F1F20",
"s  c #232323",
"d  c #292827",
"f  c #26272A",
"g  c #27282B",
"h  c #2C2C2C",
"j  c #2D2F34",
"k  c #2E3034",
"l  c #2F3238",
"z  c #343434",
"x  c #3B3A37",
"c  c #333438",
"v  c #36383C",
"b  c #3B3B3B",
"n  c #442E03",
"m  c #473106",
"M  c #4C3507",
"N  c #4B3303",
"B  c #493408",
"V  c #513704",
"C  c #553A03",
"Z  c #523805",
"A  c #543906",
"S  c #5A3B00",
"D  c #583B03",
"F  c #593E06",
"G  c #5B3E04",
"H  c #5F4003",
"J  c #604102",
"K  c #634202",
"L  c #604104",
"P  c #624407",
"I  c #654403",
"U  c #694702",
"Y  c #684705",
"T  c #694601",
"R  c #6B4802",
"E  c #6F4A00",
"W  c #6E4A02",
"Q  c #704B02",
"!  c #724C01",
"~  c #724D03",
"^  c #724D05",
"/  c #784F00",
"(  c #765105",
")  c #755007",
"_  c #7C5303",
"`  c #40403E",
"'  c #41403E",
"]  c gray25",
"[  c #414140",
"{  c #414141",
"}  c #404142",
"|  c gray26",
" . c #434342",
".. c #434343",
"X. c #444444",
"o. c gray27",
"O. c #464645",
"+. c #464646",
"@. c gray28",
"#. c #444444",
"$. c #484848",
"%. c #494949",
"&. c gray29",
"*. c #4A4A4B",
"=. c #4B4B4B",
"-. c #4B4B4C",
";. c #4C4C4C",
":. c #4D4D4C",
">. c gray30",
",. c #4E4E4E",
"<. c #4F4F4F",
"1. c #4A4A4A",
"2. c #504F4E",
"3. c #50504F",
"4. c #505050",
"5. c #545454",
"6. c #5F5F5F",
"7. c #646464",
"8. c #646464",
"9. c #6A6A6A",
"0. c #6A6A6A",
"q. c #825601",
"w. c #835803",
"e. c #815804",
"r. c #845906",
"t. c #855902",
"y. c #8E5F02",
"u. c #8B5D05",
"i. c #8F6005",
"p. c #956401",
"a. c #976506",
"s. c #976606",
"d. c #936304",
"f. c #996601",
"g. c #9B6701",
"h. c #986604",
"j. c #986604",
"k. c #9F6B04",
"l. c #9D6905",
"z. c #A06C05",
"x. c #A26D05",
"c. c #A77005",
/* pixels */
"s d d d d d d d h d d f > z b b b b b b b b b x x c c x c c x c c x x l x x l x x x b b b b b b b ] x > f d d h d d d h h h d s ",
"x @.{ { { { { { ] #.$.x d { $.$.$.$.$.$.$.$.-.>   4 0 o * q o $ q o @ q + . q &   > $.$.$.$.$.$.$.-.{ d x { ;.b { { { { { { @.x ",
"x $.{ b ] ] ] { x -.6.d h { ;.$.$.$.$.$.$.$.;.; N w.# L y.$ Z p.4 n f.5 0 f.0 8 D : -.$.$.$.$.$.$.;.{ h x @.7.h b ] b b ] { $.x ",
"x @.b b b b b b b k f j h x { { { { { { { { { * q 4 w.r.* ( i.* Y h.4 F l.9 M z.3 + { { { { { { { { x h b z f z b b b b b b @.x ",
"x @.b b b x x x x x z z f z x x x x x x x x x + X Q N X U D . J J . D R X B ~ $ % & x x x x x x x x z f z x z x x x x b b b @.x ",
"x @.b b x s > > > > > > : > < < < < < > > > > . @ X   % @   $ $   @ $   @ %   X @ . > > > > > < < < > : > > > > > > s x b b @.x ",
"x @.b b h +   : > > > > .             . > > > > +   .     .     .     . .   .     . : > < > :         .   : > : +   + h b b @.x ",
"x @.b b z : . h b @.$.$.z > > > > > < b 4.;.{ z > > > > > > < < > < < < < < > > > > f b $.4.$.d > < < > d { @.@.x   : z x b @.x ",
"x @.@.x x > . z x @.$.$.@.z > < s s b -.@.x d > > < a s f f f d d f f f f f f d d s > s x { $.@.h a > d { $.$.$.x   > z { ` @.x ",
"x @.9.h z >   h z b @.$.$.@.z > s b -.$.b h < < f a s f f f h z k s s f f f h z z s > > f x @.$.@.s s { $.$.@.{ z   > h 8.@.x x ",
"x b d h x >   < h x b @.$.$.@.z x ;.$.b h s d z x d h z z x { x x d h z z x #.x x d d f > f x @.;.{ { $.$.$.{ x h   > z h d b x ",
"h x z x z : . a > d x b @.$.$.@.$.$.b h < d { x x d z x x x @.b x d z x x x @.b x h h x d < d x ..@.$.$.$.{ x z <   > h z z x h ",
"s h z h f + . h s > h z x @.$.$.$.b h s d x $.b x h z x x x $.{ x d z x x x $.b b h h x x f < h b $.$.$.{ x z s >   : d z z f s ",
"b $.$.{ x > . z z > > z x b @.$.$.{ z < z b $.b x h z x x x $.b x h x x x x $.b b h z x x f d { $.$.$.{ b z f < <   s $.$.@.x j ",
"b $.$.{ x > . z z h z #.$.x x @.$.$.@.x z $.;.b x z @.$.@.-.4.b x z @.$.$.;.;.b b z { $.x h { $.$.$.{ b $.{ h d s   s $.$.@.x z ",
"b $.$.{ x > . z x x @.$.@.x z b @.$.$.@.x k b b b b ] { { { ] b b b { { { { b b b b { z h { $.$.$.{ x x @.$.{ z <   s $.$.@.x z ",
"b $.$.{ x < . z x #.$.#.x s d x b @.$.$.@.z d x b x x x x x x b b x x x x x x b b b k h { $.$.$.{ x z d x @.$.{ f   s $.$.@.x z ",
"b $.$.{ x < . x @.$.@.x f < < h x b @.$.$.@.z d x h d j h z x b x d h h j z x b b d d { $.$.$.{ x z < : d x @.;.x   s $.$.@.x z ",
"b $.$.{ x > . @.$.#.x d f x x < h x b @.$.$.@.z f d z x x x @.b x d z x x x @.b x h { $.$.$.{ x z < < s > d x $.@.  a $.$.@.x z ",
"b $.$.{ x > + ;.@.x d f x b @.h < d x b @.$.$.@.z < h x x x $.{ x h x x x b -.x z { $.$.$.{ x z a > h z s > h b {   a $.$.@.x z ",
"b $.$.{ x > + $.x f s x x x $.b f > h x b @.$.$.@.z > f f f z h d < s f f d h z { $.$.$.{ x z a s d z x h s s j x   < @.$.@.x z ",
"b ;.4.@.x < . x f > z x x x $.b x > > h x b @.$.$.@.z : + : > : : : : : : + s { $.$.$.{ x z s s x h h x x h d s d   s ;.;.;.x z ",
"b z f s s + . h a h @.@.@.;.-.b x h h > h x b @.$.$.@.x > < f f f f f f < d { $.$.$.{ x z f k x b z b $.@.@.{ s >   : f d d f z ",
"b ; 3 @ @ X   s z x { ..{ @.{ b x x b d > h x b @.$.$.b d < d x x x x s f x @.$.$.{ x z s d b b b x { #.{ { x d >     0 @ @ 6 z ",
"` : 0 a.& @ . h x x x x x x b b b b b b d > d z b @.{ x h f . < b b s . s x b #.] x z s f x b b b b b x x x x h <     0 a.@ r z ",
"b i * P ~   . z x d h z z z x b x h j z z > + h z x x z h > > . < s + d < f x z j j > < h z z x b z h z z h h h y   1 4 P E - z ",
"b > t.4 Y % o z z d z z z x #.b x d z x z f + < h d d h > s x s : . d x d s f f f < > z x x { b b h h x z z x j 7   . u.4 K u j ",
"` ; n h.# % o z z d x x x b $.b x d x x x d : < s s s : s x x h f h s z b z > < s > s x x x $.{ b h z x x x ] z <     m h.X t z ",
"b u @ ^ Y   . z z d x x x b $.b x d x x x d : s h f : < h b x h b x x h x d f > < < s x x x @.{ b h z x x z b z 7   1 * ^ K - z ",
"b , q.4 ~ % o z z d z x x x $.b x d z x x d : s x > : z d h h ] x z b x s < z s > < s x x x @.{ b h h x x z b z <   X t.4 E t k ",
"` - V u.# 1 . z z h { @.{ $.-.b x j { ..#.x > s x x > < s s x b b b x x h < < > f < d @.{ @.4.{ b h x @.{ { @.z <     D u.X i k ",
"b u @ _ G   . z x x @.@.@.$.{ b x x @.@.$.x : s x b x > < x z x b b b x h h + h z < h $.@.@.@.b b x { @.@...b h y   % # _ D - z ",
"b 6 _ * _ @ o z x b x b b b b b b b b b b h : s x b d . > x x b x b b x x s : > h < d b b b b b b b b b b x x h 7   @ _ * / r k ",
"` - G w.& 2 o z x z x x x x x b x z x x x d ; s x s : h < s #.x { x b { d z z > + < f x x x x b b x z x x x k h a     L w.@ p k ",
"b t X u.Z   . z z f h k h x b b x f h k k f : s h > > z b f s z d d x d x b x s + > < z z z x b b h d z h h z h y   % # u.N ; z ",
"b 6 E * q.X o z z d x x x b $.b x d x x x h > < h x > : z x < : < f < h b b h s z > s x x x $.{ b h z x x x { z 7   @ ~ * _ 6 z ",
"` - U ( * 3 o z z d x x x b $.b x d x x x d + d { b z > > s f > : > f z x h s { @.z s x x x @.{ b h z x x x b z <     W ^ $ p j ",
"b r X d.n   . h x d x x z x $.b x d x x z > s { $.$.b h > : z < + : > z s s b $.$.@.x h x x @.{ b h h x x z b z <   % # d.n ; z ",
"b r K 4 t.. . d j h x x x { $.b x h x z < f { $.$.$.b z h < : . z x : + > h b @.$.$.@.x j b -.] b h z b x x { z 7   % Y 4 q., z ",
"` - U Z 5 1 ; ` f z $.$.$.;.$.b x x b f d #.$.$.$.{ x z d z < f x z h > s z x b @.$.$.@.x b ;.b b z { -.$.@.@.z <     E Z 1 i j ",
"b :   2 .   : ;.x d x ] b b b b x z < f { $.$.$.{ x z f < a s s s s s s < > h z b @.$.$.@.x h x b b b b b b x h <       2   > x ",
"b b x k h > + $.$.x f z x x x b h > f { $.$.$.{ x z > . . . . . + . . . . . . d z b @.$.$.@.x h x x x x x x z f s   > x v x z z ",
"b $.;.@.x < o b @.$.x < d z x h > s { $.$.$.{ x z > > f d d z x z s f d d d s > h z b @.$.$.@.x d d d h h h f d b   s $.;.$.x z ",
"b $.$.{ x > . h b @.$.x s z x > f { $.$.$.{ x z a > z x x x $.{ x h x x x b @.f > h x b @.$.$.@.x < h x x d h @.@.  a $.$.@.x j ",
"b $.$.{ x >   f j b $.$.x < < f { $.$.$.{ x z s f d z x x x $.] x h z x x x $.x < : h x b @.$.$.@.z < h f f { ;.b   s $.$.@.x j ",
"b $.$.{ x > . h d j b $.-.x d ..$.$.$.{ x z s f x h z x x x $.{ x h z x x x $.b z > > h x b @.$.$.@.z > s { $.@.z   s $.$.@.x j ",
"b $.$.{ x > . z z s z b $.{ { $.$.$.{ x z s h x b h z x x x $.b x h x x x x $.b x s > > h x b @.$.$.@.z b ;.@.x f   s $.$.@.x z ",
"b $.$.{ x > . z x h h h x { $.$.$.{ x z s h @.b x z #.$.$.;.;.b x z @.$.$.;.;.b b z z f < h x b @.$.$.@.@.@.x h <   s $.$.@.x z ",
"b $.$.{ x > . z x h > d { $.$.$.{ x z s s x ] b b b ] ] { { b b b b { { { { ] b b b b x s > h z b @.$.$.@.x d s <   a $.$.@.x z ",
"b $.$.{ x > . z h > f { $.$.$.{ x b f > z x x b b x x x x x x b b x x x x x x b b x x x z s > h z b @.$.$.{ z > >   a $.$.@.x z ",
"b $.$.{ x > . d > f { $.$.$.{ x x $.b s d z x b b h d h j z x b x d h h h z x b b h d h j h < > z x b @.$.$.@.x >   s $.$.@.x z ",
"s d z h f ; . > f { $.$.$.{ x z x $.-.b f x $.b x h z x x x $.b x d z x x x $.b b h h x x z d z @.b z b @.$.$.@.h   : d z h d s ",
"h x x x z >   d { $.$.$.{ x z s d b $.-.x h @.b x h z x x x $.b x d z x x x $.b b h z x z s z $.$.{ z z b @.$.$.x   > h x x x h ",
"x @.@.b x > . b $.$.$.{ x z s > < h b $.$.b x x x d z x x x @.b x d z x x x @.b x h h z a h $.$.{ z s h x b @.$.x   > x { { @.x ",
"x @.9.z j > . { $.$.{ x z s < d f > h b $.$.x h x d h z z x @.x x f h z z x #.x x d d s h $.-.{ z f > > h x x $.b   > h 8.@.x x ",
"x b d h z > . { $.{ x z s < d z h < f z b $.$.x f f x b x b { z k d x b x b { z z f s h @.$.{ z h f z d < h z b b   > z h d b x ",
"x @.x x z : . z x z z s > s d d d f f s h b $.;.x f h h h h h d d f h h h h h d f < h $.;.@.x d f f d d s < h x z   : z x x @.x ",
"x @.b b h +   o . . .                     . + ; : .   . .     .     .     .     .   . + + . .         . .   . . .   ; h b b @.x ",
"x @.b b x s > > > > > > : < s a < < < s < s + @ X   3 @   3 %   2 1   1 2   % 1   < < < < < < < < s < : > > > > > > s x b b @.x ",
"x @.b b b x x x x z z z f ] -.$.$.$.$.$.$.;.y X 5 u.B * w.D & _ Y # W W # Y ( @ . @.$.$.$.$.$.$.$.$.b f z z z x x x x b b b @.x ",
"x @.b b b b b b b 9.b z h { $.$.$.$.$.$.$.2.< 3 z.e e c.B 9 z.F 5 l.Y = d.^ 4 H $ ..=.$.$.$.$.$.$.$.{ h z 5.;.z b b b b b b @.x ",
"x $.{ b b b ] { x { h x h b $.@.@.@.@.@.@.$.< 0 * 0 t.1 3 t.3 * t.q @ q.N X _ n   ..$.@.@.@.@.@.@.$.b h x $.b h { b ] ] ] { $.x ",
"x @.{ { { { { { b h x x d z x x x x x x x x y o & 9 O + 9 + + 9 + O 9 & O 9 * o : x x x x x x x x x z d x z h b { { { { { { @.x ",
"s d d d d h h h h h h f > d z z z z z z j j z z z j z z j z z j z z k z z k z z x z z z j j k z z z d > f h h h d d d h h h d s "
};
