/* XPM */
static char *_1ba945ed0034af0f0f0c382cd7b8131RlIPg7xL8HBlnsdZ[] = {
/* columns rows colors chars-per-pixel */
"64 64 177 2 ",
"   c None",
".  c #223A5E",
"X  c #263D61",
"o  c #274065",
"O  c #2B4365",
"+  c #2D4669",
"@  c #2F496A",
"#  c #344C6C",
"$  c #384F6E",
"%  c #37526E",
"&  c #39526F",
"*  c #345371",
"=  c #3B5472",
"-  c #375874",
";  c #3E5A75",
":  c #3D617A",
">  c #405774",
",  c #425B76",
"<  c #445D79",
"1  c #485E79",
"2  c #436177",
"3  c #45627B",
"4  c #4A647D",
"5  c #45687F",
"6  c #4E697F",
"7  c #50637F",
"8  c #4C6780",
"9  c #476882",
"0  c #4D6B82",
"q  c #526582",
"w  c #526C85",
"e  c #5B6D87",
"r  c #546E88",
"t  c #5D6E8A",
"y  c #4D7185",
"u  c #4F7388",
"i  c #527286",
"p  c #54748A",
"a  c #5C748D",
"s  c #55798B",
"d  c #5B7A8E",
"f  c #577A92",
"g  c #5D7D91",
"h  c #61728C",
"j  c #637690",
"k  c #637D93",
"l  c #6A7F97",
"z  c #5B828F",
"x  c #5E8393",
"c  c #648394",
"v  c #698596",
"b  c #638B96",
"n  c #6A8A96",
"m  c #648698",
"M  c #6B8599",
"N  c #658C9A",
"B  c #6B8C9B",
"V  c #71879C",
"C  c #718E9D",
"Z  c #7E8B9F",
"A  c #66909C",
"S  c #6B939D",
"D  c #6F999E",
"F  c #74939E",
"G  c #759A9F",
"H  c #7D8CA2",
"J  c #768CA1",
"K  c #6B94A1",
"L  c #6E99A3",
"P  c #7494A2",
"I  c #7A94A3",
"U  c #739CA6",
"Y  c #7C9AA5",
"T  c #7E94A9",
"R  c #779DA8",
"E  c #7D9DA9",
"W  c #74A1A7",
"Q  c #7AA2A6",
"!  c #75A2A9",
"~  c #7BA4AB",
"^  c #7EAAAE",
"/  c #7FACB1",
"(  c #818EA4",
")  c #8393A6",
"_  c #819BA6",
"`  c #8795A9",
"'  c #849DA9",
"]  c #8B9DAD",
"[  c #80A6A7",
"{  c #84A3AC",
"}  c #8AA4AD",
"|  c #82A9AD",
" . c #8AAAAC",
".. c #86A7B0",
"X. c #8CA6B1",
"o. c #84ADB2",
"O. c #8CACB3",
"+. c #90A2B1",
"@. c #93ADB5",
"#. c #96AFB8",
"$. c #9BADBA",
"%. c #86B1B5",
"&. c #8CB2B5",
"*. c #8DB5B9",
"=. c #93B4B5",
"-. c #99B6B5",
";. c #95B9B7",
":. c #9CB9B7",
">. c #94B4BA",
",. c #9BB5BC",
"<. c #94BABB",
"1. c #9CBCBC",
"2. c #A5AFBE",
"3. c #A7B0BF",
"4. c #A3BDBD",
"5. c #9EC1BF",
"6. c #A4C1BE",
"7. c #A8C3BF",
"8. c #9DBDC1",
"9. c #A7B1C0",
"0. c #A9B4C2",
"q. c #A4BEC3",
"w. c #AEBBC6",
"e. c #B0BCC8",
"r. c #9EC1C1",
"t. c #A3C3C3",
"y. c #ABC5C3",
"u. c #AECAC5",
"i. c #A6C6C8",
"p. c #ABC6C9",
"a. c #ADC9CB",
"s. c #B1CBC6",
"d. c #B2C4CB",
"f. c #BAC7CF",
"g. c #B3CCCC",
"h. c #B9CECD",
"j. c #B5D0CC",
"k. c #BBD2CE",
"l. c #B5CED0",
"z. c #B9CED1",
"x. c #B7D1D3",
"c. c #BCD3D3",
"v. c #BFD7D8",
"b. c #C1D6D5",
"n. c #C4D9D6",
"m. c #C2D6D9",
"M. c #CCD2DB",
"N. c #C4DADA",
"B. c #CADCDA",
"V. c #CBDDDD",
"C. c #D1D6DE",
"Z. c #D1D8DF",
"A. c #CEE1DE",
"S. c #D1E2DF",
"D. c #CDDFE0",
"F. c #D7DDE3",
"G. c #D5DBE1",
"H. c #D9DFE4",
"J. c #D8DEE4",
"K. c #CEE1E1",
"L. c #D4E5E3",
"P. c #DAE1E5",
"I. c #DCE3E7",
"U. c #DDE5E7",
"Y. c #D9E5E5",
"T. c #DBE9E7",
"R. c #D9E8E6",
"E. c #DCE6E9",
"W. c #DDEAE9",
"Q. c #DDEBEA",
"!. c #E1E9EA",
"~. c #E2EBEC",
"^. c #E6EEEE",
"/. c #E2EEEC",
"(. c #E4F0EE",
"). c white",
"_. c white",
/* pixels */
"                                                                                                                                ",
"                                                                                                                                ",
"                                                    ).).).).).).).).).).).).                                                    ",
"                                                    P.F.J.P.P.P.P.I.U.U.E.~.                                                    ",
"                                                ).P.$._ ' ' } } X.@.@.@.@.y.~.).                                                ",
"                                                I.f.Y c v B C C C F F F G @.N.^.                                                ",
"                                            ).P.$._ _ { } @.=.@.} [  . . . .-.s.~.).                                            ",
"                                            I.f.Y B } :.4.4.4.4.-.=.-.-.-.=. .:.V.^.                                            ",
"                                        ).P.#.I _ } -.4.y.y.:.-.-.:.:.1.1.:.-.-.1.h.^.).                                        ",
"                                        P.d.C c } 4.4.y.s.u.4.:.:.:.4.7.7.7.4.:.O.1.V.^.                                        ",
"                                    ).F.+.n c F @.q.y.s.g.h.h.s.7.4.7.7.7.7.7.4.:.,.4.z.^.).                                    ",
"                                    J.w.c 6 c Y @.4.u.h.c.b.n.b.g.u.y.7.y.y.y.y.u.y.1.y.G.^.                                    ",
"                                ).F.] k p s n G [ -.u.c.b.n.B.B.B.b.s.y.y.y.y.g.n.B.n.x.i.z.^.).                                ",
"                                ).C.v ; i c S G Q &.t.g.h.c.b.n.B.b.g.u.u.u.y.k.A.R.R.b.;.t.~.).                                ",
"                                ).Z.M 2 s N D U [  .-.4.t.y.u.s.g.g.s.s.u.u.u.k.S.W.W.N.1.t./.).                                ",
"                                F.w.c 9 d N D Q [  .&.=.:.4.7.7.y.y.s.s.k.k.k.n.L.W.W.V.a.a.L.^.                                ",
"                            ).G.] k p s z N G Q [  .&.-.:.4.7.y.y.u.s.k.V.L.L.R.W.Q.W.R.A.v.i.l./.).                            ",
"                            ).C.v ; y z x N D Q &.;.1.7.y.u.s.g.k.k.k.n.R./.^././././.W.L.c.<.t.~.).                            ",
"                            ).Z.M : y x b A D | t.h.c.b.n.B.V.S.L.L.L.R./././././././.L.b.y.>.i./.).                            ",
"                            F.w.c 5 u x S R ~ >.g.N.V.L.L.R.T.Q./././.^././.^./.R.L.L.B.g.6.;.i.D.^.                            ",
"                        ).G.` a 0 y s N | ,.8.i.x.N.V.L.L.R.W.Q./.^.(.^.(.(.(.R.B.c.k.k.s.y.t.t.t.l.^.).                        ",
"                        ).M.k * 5 s c U >.i.g.x.b.m.v.b.N.V.A.L.L.L.L.L.L.R.R.A.k.s.u.u.u.u.u.1.%.t.~.).                        ",
"                        ).M.l - 5 x U O.8.i.g.c.m.c.i.r.t.u.g.h.k.k.c.c.c.c.c.k.j.g.s.u.u.u.y.1.%.t.~.).                        ",
"                        G.0.j 2 i B ..,.q.i.g.x.l.i.;.&.;.1.6.t.y.u.u.s.s.s.s.s.g.g.s.u.u.u.y.1.&.8.V./.                        ",
"                    ).C.) r 4 y N E O.,.q.i.l.a.1.&.&.&.;.1.6.t.y.u.u.u.u.u.u.u.s.s.u.u.u.y.t.1.;.=.>.p.~.).                    ",
"                    ).M.a @ 3 g P ..=.,.q.i.i.8.o.^ %.&.<.1.u.g.j.k.x.c.c.c.c.c.c.k.g.u.y.t.t.1.,.O.~ ,.W.).                    ",
"                    ).M.a * p B R ..=.,.t.q.&.| ^ ^ o.&.;.t.b.L.L.L.L.L.L.L.L.L.L.V.j.y.t.t.6.1.;.O.~ ,.W.).                    ",
"                    ).M.j - d P E ..=.,.,.&.~ W ~ o.<.8.t.g.K.Q.Q././.(./.(.(.(.(.L.b.j.g.u.6.,.=.o.~ ,.W.).                    ",
"                    ).M.j - d P E ..>.&.~ R U W ~ &.a.v.m.V.L.W.Q.Q./././././././.W.L.L.A.b.t.;.&.| ~ ,.W.).                    ",
"                    ).M.j - d P E | ..~ L K U ~ o.8.v.L.L.L.R.T.W.T.L.K.L.L.L.L.W.Q.Q.Q.W.A.g.1.=.| R ,.E.).                    ",
"                    ).M.j - d P E E P S S K L | t.c.N.K.L.L.R.T.W.L.c.a.g.g.g.v.L.Q.Q.W.T.L.V.h.,.| R >.E.).                    ",
"                    G.0.a 3 g P E Y N b A L ~ >.g.m.V.D.L.L.V.V.V.b.u.5.t.t.t.p.m.K.A.K.L.L.L.b.1.| R O.z.I.                    ",
"                ).C.H r w p c P E R N b A R >.i.z.m.N.D.K.N.a.t.i.t.r.r.r.r.r.t.p.a.p.j.V.L.L.v.,.[ Q U T $.I.).                ",
"                ).M.t + 8 g v B P F b b N ~ 8.l.x.v.N.N.v.g.8.*.<.<.<.1.1.1.1.1.5.1.1.t.x.N.V.v.q.O.~ S f T F.).                ",
"                ).M.t @ 4 d c n c x x x N R 1.g.l.c.m.c.t.<.*.*.*.<.<.<.<.<.1.1.1.<.<.,.1.i.v.m.z.q.| N p T F.).                ",
"                ).M.a # 3 d c c d p g c S ~ ,.p.l.c.m.g.<.o.%.&.*.<.r.t.i.i.i.t.1.;.<.=.&.,.l.N.n.p.| N p T F.).                ",
"                ).M.t + < a c c a p d N E =.8.i.a.l.c.a.*./ o.%.%.<.l.m.N.N.N.x.8.*.&.&.o.>.g.b.c.p.{ N p T F.).                ",
"                ).M.t + < p k k p p s M | ,.q.q.p.a.a.8.&./ o.%.<.i.m.L.L.K.N.l.<.&.&.o.| >.a.c.z.q.~ c p T F.).                ",
"                ).M.t + < i d d p i p m { >.,.q.p.q.*.o.^ ^ / *.i.v.N.D.K.m.i.>.&.o.o.| ^ &.i.z.g.1.Y x r I G.).                ",
"                ).M.a + < w p p w 0 p c E @.,.1.q.,.~ U ! ~ ~ *.g.N.N.m.c.i.*.^ ^ ^ ^ ~ ~ o.t.g.p.,.P s 0 J G.).                ",
"                ).M.a + , 8 4 4 8 0 w g I X.@.,.8.>.~ L U W ! o.a.m.m.l.8.&.o.^ ~ ~ ~ ! U | 8.p.i.#.S s 9 J G.).                ",
"                ).M.t O ; 4 < < 3 8 0 d P { X.@.,.@.R K L L U ..i.c.c.i.&.~ ~ ~ ! ! W U L ~ ,.p.q.O.B p 5 V G.).                ",
"                ).M.e o = 4 < < 3 4 8 a B E { X.@.X.P K K L L ~ q.l.l.t...U R R U U U L K R >.q.,.X.M u 3 V Z.).                ",
"                ).C.H q < , , , < 3 4 p n I E { X.{ K N N A K R 8.d.g.q.O.~ | ~ U K S K U { >.,.,.{ c p v +.F.).                ",
"                    C.9.t $ = ; , < 3 w c C I E { E N x m N N U >.p.p.q.8.,.,.O.U N N P ..#.,.,.@.Y p k e.H.                    ",
"                    ).M.j + $ = , < 3 0 g M C P Y P m g x x x S { ,.4.q.q.q.q.,.{ P P R @.,.,.@.{ M 8 M C.).                    ",
"                    ).M.h O $ = , , < 0 a c n B P C g p f g x c M I @.,.,.,.1.,.@.X.X.X.@.@.@.' M p < M C.).                    ",
"                    ).M.a o # = = , , 4 p g c n B n d p p s f d f c Y X.@.>.>.#.@.@.@.@.X.} ' C d 3 - l C.).                    ",
"                    ).M.t X # & = = = 3 w a d k c c p 0 i p p p p d c C ' X.X.X.X.} } } } Y n d i 5 * k M.).                    ",
"                    ).C.( q = # $ = = , 4 w p d k d p 0 0 0 r p p p i d C Y ' { ' _ _ Y P v s 9 3 8 a ] G.).                    ",
"                        G.2.q o # & = = , 3 0 p a a a p 0 8 8 0 0 0 0 i d c F Y I I F B d i 0 2 % a 0.J.                        ",
"                        ).C.( q = # $ = = ; 4 q r p a a 0 8 8 8 8 8 0 0 0 p c n v v c d w 3 , 3 e ` G.).                        ",
"                            G.2.q o @ $ $ = < 4 0 w r p r w 4 3 3 3 4 4 4 0 i i w w q 6 4 ; # e 0.G.                            ",
"                            ).C.) q & + # = = < 4 8 8 q r w 4 4 3 3 3 3 3 4 3 3 3 3 , , ; , e ` Z.).                            ",
"                                G.2.q X O # $ = , < 4 4 8 0 8 8 0 4 < , , , , , , , , & @ e 0.G.                                ",
"                                ).C.( q $ o O # $ = , < 4 4 4 4 8 4 < , , , = & % % % > e ) C.).                                ",
"                                    G.2.4 . X o O # = , , , , < 4 4 4 4 4 , # O o o X q 3.G.                                    ",
"                                    ).C.H t t h h e = # $ $ & & = = = = = 1 e h h t t ( C.).                                    ",
"                                        C.M.M.M.C.2.7 X X o O O O O O o o q 3.C.M.M.M.C.                                        ",
"                                        ).).).).).M.H t t t h h h a a t e Z M.).).).).).                                        ",
"                                                    M.M.M.M.M.M.M.M.M.M.M.C.                                                    ",
"                                                    ).).).).).).).).).).).).                                                    ",
"                                                                                                                                ",
"                                                                                                                                "
};
